# xmcd
#
# Track frame offsets: 
#        150
#        15532
#        35042
#        51452
#        64320
#        76677
#        90695
#        104990
#        119972
#        137462
#        151522
#        167487
#        181350
#        197100
#        215607
#        231337
#        245775
#        261110
#
# Disc length: 3665 seconds
#
# Revision: 4
# Processed by: cddbd v1.5.2PL0 Copyright (c) Steve Scherf et al.
# Submitted via: ExactAudioCopyFreeDBPlugin 1.0
#
DISCID=080e4f12
DTITLE=Various Artist - Asleep At The Wheel: Tribute To The Music Of Bob Will
DTITLE=s And The Texas Playboys
DYEAR=1994
DGENRE=Country
TTITLE0=Red Wing
TTITLE1=Big Ball's In Cowtown
TTITLE2=Yearning (Just For You)
TTITLE3=Bring It On Down To My House
TTITLE4=Deep Water
TTITLE5=Blues For Dixie
TTITLE6=Billy Dale
TTITLE7=Across The Alley From The Alamo
TTITLE8=Old Fashioned Love
TTITLE9=Ida Red
TTITLE10=Misery
TTITLE11=I Wonder If You Feel The Way I Do
TTITLE12=Hubbin' It
TTITLE13=Corine, Corina
TTITLE14=Still Water Runs The Deepest
TTITLE15=All Night Long
TTITLE16=Got A Letter From My Kid Today
TTITLE17=Dusty Skies
EXTD=
EXTT0=
EXTT1=
EXTT2=
EXTT3=
EXTT4=
EXTT5=
EXTT6=
EXTT7=
EXTT8=
EXTT9=
EXTT10=
EXTT11=
EXTT12=
EXTT13=
EXTT14=
EXTT15=
EXTT16=
EXTT17=
PLAYORDER=
